<svg id="address" xmlns="http://www.w3.org/2000/svg" viewBox="0 0 100 100"><style>.st0{fill:none}.st1{fill:#e0decf}</style><g id="hollow"><path class="st0" d="M50 0C22.4 0 0 22.4 0 50s22.4 50 50 50 50-22.4 50-50S77.6 0 50 0zm0 85.8S24.3 57.6 24.3 43.5 35.8 18.2 50 18.2s25.7 11.3 25.7 25.4C75.7 57.7 50 85.8 50 85.8z"/><circle class="st0" cx="50" cy="41.6" r="10.1"/></g><path class="st1" d="M50 18.2c-14.2 0-25.7 11.2-25.7 25.3S50 85.8 50 85.8s25.7-28.1 25.7-42.2c0-14.1-11.5-25.4-25.7-25.4zm0 33.5c-5.6 0-10.1-4.5-10.1-10.1S44.4 31.5 50 31.5 60.1 36 60.1 41.6 55.6 51.7 50 51.7z"/></svg>