<svg id="email" xmlns="http://www.w3.org/2000/svg" viewBox="0 0 100 100"><style>.st0{fill:none}.st1{fill:#e0decf}</style><g id="hollow"><path class="st0" d="M23.8 39.7v28.1h52.4V39.6L49.9 61.4z"/><path class="st0" d="M74.9 32.2H25.1l24.8 20.6z"/><path class="st0" d="M50 0C22.4 0 0 22.4 0 50s22.4 50 50 50 50-22.4 50-50S77.6 0 50 0zm32.6 69.2c0 2.8-2.2 5-5 5H22.4c-2.8 0-5-2.2-5-5V30.8c0-2.8 2.2-5 5-5h55.2c2.8 0 5 2.2 5 5v38.4z"/></g><path class="st1" d="M77.6 25.8H22.4c-2.8 0-5 2.2-5 5v38.4c0 2.8 2.2 5 5 5h55.2c2.8 0 5-2.2 5-5V30.8c0-2.8-2.2-5-5-5zm-2.7 6.4l-25 20.6-24.8-20.6h49.8zm1.3 35.6H23.8V39.7l26.1 21.7 26.3-21.8v28.2z"/></svg>