<svg id="facebook" xmlns="http://www.w3.org/2000/svg" viewBox="0 0 100 100"><style>.st0{fill:none}.st1{fill:#e0decf}</style><path class="st0" d="M50 0C22.4 0 0 22.4 0 50s22.4 50 50 50 50-22.4 50-50S77.6 0 50 0zm7 36.9c3.5 0 7.2-.1 10.7.1-.1 3.7 0 7.6-.1 11.3H57v35H42v-35c-3.1-.1-6.4 0-9.6-.1V36.8h9.5c.1-3 0-5.7.2-8.1.2-2.4 1-4.4 2.1-6.1 2.2-3.2 5.8-5.8 10.7-6 4-.2 8.5.1 12.8.1 0 3.8.1 7.7-.1 11.4-2.1.1-4.3-.2-6.1 0-1.9.2-3.3 1.3-3.9 2.7-.9 1.7-.6 3.8-.6 6.1z" id="hollow"/><path class="st1" d="M61.5 28.1c1.8-.2 4 .1 6.1 0 .2-3.7.1-7.6.1-11.4-4.3 0-8.8-.3-12.8-.1-4.9.2-8.5 2.8-10.7 6-1.1 1.7-1.9 3.7-2.1 6.1-.2 2.4-.1 5.1-.2 8.1h-9.5v11.4c3.2.1 6.5 0 9.6.1v35h15v-35h10.6c.1-3.7 0-7.6.1-11.3-3.5-.2-7.2-.1-10.7-.1 0-2.3-.3-4.4.6-6.1.6-1.4 2-2.5 3.9-2.7z"/></svg>