<svg id="instagram" xmlns="http://www.w3.org/2000/svg" viewBox="0 0 100 100"><style>.st0{fill:none}.st1{fill:#e0decf}</style><g id="hollow"><path class="st0" d="M50.1 58.4c4.1 0 7.8-3.4 8-7.6.3-5.6-4.5-9.1-9.3-8.5-3.5.5-6.1 2.9-6.8 6.4-1.1 5.5 3.6 9.7 8.1 9.7zM71.3 26.6H65c-.9 0-1.6.7-1.6 1.6v6.3c0 .9.7 1.6 1.6 1.6h6.3c.9 0 1.6-.7 1.6-1.6v-6.3c.1-.9-.7-1.6-1.6-1.6z"/><path class="st0" d="M50 0C22.4 0 0 22.4 0 50s22.4 50 50 50 50-22.4 50-50S77.6 0 50 0zm28.1 65.2c0 3.8-.7 6.7-2.7 9-1.8 2-4.2 3.7-7.6 4-5.6.4-11.6 0-17.6 0-5.7 0-11.8.4-17.6 0-5.7-.4-10.1-4.6-10.5-10.5-.6-7.8.4-17 0-25.4 0-.2.1-.4.3-.4h15.8c.5.3-.4 1-.7 1.5-1.1 2-1.9 5-1.6 8.3.4 6.6 6 12.3 13.1 12.8 5.2.4 9.4-2.1 12-5.3 2.4-2.9 4.4-8 2.6-13.4-.2-.7-.6-1.4-1-2-.3-.6-.8-1.2-.8-1.9h16.1c.3 8.2.2 15.7.2 23.3zM39 50.5c-.1-3.6 1.6-6.5 3.3-8.2s3.8-2.8 7.1-3c6.1-.4 11.1 3.9 11.7 9.5.6 6.2-3.7 11.7-9.3 12.4-1 .1-2.4.1-3.4 0-4.9-.5-9.3-5-9.4-10.7zm39.1-10.2H64.9c-1.4 0-3.1.3-4.4 0-.8-.2-1.2-1-1.9-1.5-2.2-1.6-5.6-3-9.8-2.7-3.1.2-5.2 1.3-7.2 2.9-.5.4-1.3 1.2-1.9 1.4-1.2.3-3 0-4.5 0H22.1c.2-3.3-.4-6.5.1-9.3.6-3.3 2.6-5.6 4.6-7v11.7H29s-.2-9 .1-13.1c.3-.3 1-.2 1.4-.5.3 4.2.3 13.6.3 13.6H33V22.3c0-.2 0-.4.1-.4h1.4v13.9h2.3V21.9c9.4.5 21.5-.6 30.7 0 3.6.2 6.6 2 8.3 4.2 2.5 3.2 2.4 7.9 2.3 14.2z"/></g><path class="st1" d="M67.5 21.9c-9.2-.6-21.3.5-30.7 0v13.9h-2.3V21.9h-1.4c-.1 0-.1.2-.1.4v13.5h-2.2s0-9.4-.3-13.6c-.4.3-1.1.2-1.4.5-.3 4.1-.1 13.1-.1 13.1h-2.2V24.1c-2 1.4-4 3.7-4.6 7-.5 2.8.1 6-.1 9.3h13.1c1.5 0 3.3.3 4.5 0 .6-.2 1.4-1 1.9-1.4 2-1.6 4.1-2.7 7.2-2.9 4.2-.3 7.6 1.1 9.8 2.7.7.5 1.1 1.3 1.9 1.5 1.3.3 3 0 4.4 0h13.2c.1-6.3.2-11-2.3-14.2-1.7-2.2-4.7-4-8.3-4.2zm5.4 12.6c0 .9-.7 1.6-1.6 1.6H65c-.9 0-1.6-.7-1.6-1.6v-6.3c0-.9.7-1.6 1.6-1.6h6.3c.9 0 1.7.7 1.6 1.6v6.3zM61.8 41.9c0 .7.5 1.3.8 1.9.4.6.8 1.3 1 2 1.8 5.4-.2 10.5-2.6 13.4-2.6 3.2-6.8 5.7-12 5.3-7.1-.5-12.7-6.2-13.1-12.8-.3-3.3.5-6.3 1.6-8.3.3-.5 1.2-1.2.7-1.5H22.4c-.2 0-.3.2-.3.4.4 8.4-.6 17.6 0 25.4.4 5.9 4.8 10.1 10.5 10.5 5.8.4 11.9 0 17.6 0 6 0 12 .4 17.6 0 3.4-.3 5.8-2 7.6-4 2-2.3 2.7-5.2 2.7-9 0-7.6.1-15.1-.2-23.3H61.8z"/><path class="st1" d="M48.4 61.2c1 .1 2.4.1 3.4 0 5.6-.7 9.9-6.2 9.3-12.4-.6-5.6-5.6-9.9-11.7-9.5-3.3.2-5.4 1.3-7.1 3s-3.4 4.6-3.3 8.2c.1 5.7 4.5 10.2 9.4 10.7zM42 48.7c.7-3.5 3.3-5.9 6.8-6.4 4.8-.6 9.6 2.9 9.3 8.5-.2 4.2-3.9 7.6-8 7.6-4.5 0-9.2-4.2-8.1-9.7z"/></svg>