<svg id="phone" xmlns="http://www.w3.org/2000/svg" viewBox="0 0 100 100"><style>.st0{fill:none}.st1{fill:#e0decf}</style><path class="st0" d="M50 0C22.4 0 0 22.4 0 50s22.4 50 50 50 50-22.4 50-50S77.6 0 50 0zm22.8 78.1s-10.6 7.6-17.4 5.3c-6.7-2.4-13.4-9-22.5-27.3-.8-1.7-1.3-2.4-3.6-8.4-4.4-10.8-3.6-15.3-2-20.5 2.1-6.9 14.6-10.9 14.6-10.9 1.5-.5 3.2.4 3.7 1.9l4.2 13.2c.5 1.5-.3 3.4-1.8 4.1 0 0-.6.3-5.6 2.9s-1.8 8.7-1.8 8.7l3.6 7.8c.1.3.2.5.3.9l2.8 5.1s3 6.2 8 3.7l5.6-2.8c1.4-.8 3.4-.3 4.4 1L73.5 74c.9 1.3.6 3.1-.7 4.1z" id="hollow"/><path class="st1" d="M65.3 62.8c-1-1.3-3-1.8-4.4-1l-5.6 2.8c-5 2.5-8-3.7-8-3.7l-2.8-5.1c-.1-.4-.2-.6-.3-.9l-3.6-7.8s-3.2-6.1 1.8-8.7c5-2.6 5.6-2.9 5.6-2.9 1.5-.7 2.3-2.6 1.8-4.1l-4.2-13.2c-.5-1.5-2.2-2.4-3.7-1.9 0 0-12.5 4-14.6 10.9-1.6 5.2-2.4 9.7 2 20.5 2.3 6 2.8 6.7 3.6 8.4C42 74.4 48.7 81 55.4 83.4c6.8 2.3 17.4-5.3 17.4-5.3 1.3-1 1.6-2.8.7-4.1l-8.2-11.2z"/></svg>