<svg id="twitter" xmlns="http://www.w3.org/2000/svg" viewBox="0 0 100 100"><style>.st0{fill:none}.st1{fill:#e0decf}</style><path class="st0" d="M50 0C22.4 0 0 22.4 0 50s22.4 50 50 50 50-22.4 50-50S77.6 0 50 0zm26.7 36.4c.3 9.1-2.3 16.4-5.7 22.1-3.3 5.6-7.8 10.1-13.2 13.3-5.4 3.3-12.6 5.7-21.1 5.4-7.9-.2-14.2-2.5-19.3-5.6-.3-.2-.7-.4-.9-.7 8.8 1 15.5-1.9 20.3-5.6-3.5-.1-6.2-1.3-8.2-3-2-1.6-3.7-3.8-4.6-6.6 1.8.4 4.4.3 6-.2-3.3-.7-5.7-2.5-7.6-4.7-1.9-2.1-3.2-5-3.2-9 .1-.2.4.1.6.2 1.5.7 3.4 1.3 5.5 1.4-3.4-2.4-6.8-7-5.8-13.5.3-1.9.9-3.5 1.7-4.9.9.9 1.7 1.9 2.6 2.8C30 34 38 38.5 49.6 39.4c-1.6-7.1 2.1-12.4 6.6-15 2.5-1.4 6-2.1 9.4-1.4 3.1.6 5.5 2.2 7.3 4 3.4-.6 6.1-1.9 8.7-3.3-1.2 3.3-3.1 5.9-6 7.5 2.8-.2 5.5-1.2 7.8-2.1-1.7 2.9-4.1 5.2-6.7 7.3z" id="hollow"/><path class="st1" d="M81.6 23.7c-2.6 1.4-5.3 2.7-8.7 3.3-1.8-1.8-4.2-3.4-7.3-4-3.4-.7-6.9 0-9.4 1.4-4.5 2.6-8.2 7.9-6.6 15C38 38.5 30 34 23.8 27.8c-.9-.9-1.7-1.9-2.6-2.8-.8 1.4-1.4 3-1.7 4.9-1 6.5 2.4 11.1 5.8 13.5-2.1-.1-4-.7-5.5-1.4-.2-.1-.5-.4-.6-.2 0 4 1.3 6.9 3.2 9 1.9 2.2 4.3 4 7.6 4.7-1.6.5-4.2.6-6 .2.9 2.8 2.6 5 4.6 6.6 2 1.7 4.7 2.9 8.2 3-4.8 3.7-11.5 6.6-20.3 5.6.2.3.6.5.9.7 5.1 3.1 11.4 5.4 19.3 5.6 8.5.3 15.7-2.1 21.1-5.4 5.4-3.2 9.9-7.7 13.2-13.3 3.4-5.7 6-13 5.7-22.1 2.6-2.1 5-4.4 6.7-7.3-2.3.9-5 1.9-7.8 2.1 2.9-1.6 4.8-4.2 6-7.5z"/></svg>