<svg id="youtube" xmlns="http://www.w3.org/2000/svg" viewBox="0 0 100 100"><style>.st0{fill:none}.st1{fill:#e0decf}</style><g id="hollow"><path class="st0" d="M27.1 51.8v3.6c1.3 0 2.7-.1 3.8 0v20.5h3.7c0-6.8-.1-13.8 0-20.6 1.3.2 2.5.2 3.8.2v-3.8c-3.8 0-7.6 0-11.3.1-.1-.1 0 0 0 0zM46.4 35.6c0 .8-.1 2.2.2 2.7.6.9 2.2.5 2.5-.3.3-.7.1-1.9.1-2.7v-5.6c0-1 .2-2.2-.1-2.7-.3-.6-1.1-.7-1.6-.6-1.4.2-1.1 2-1.1 3.5v5.7z"/><path class="st0" d="M50 0C22.4 0 0 22.4 0 50s22.4 50 50 50 50-22.4 50-50S77.6 0 50 0zm5.4 32.9v-9.2c1-.1 2.3-.1 3.3 0v6.9c0 2.4-.2 4.9 0 7 .2 1.2 1.1 1.1 1.9.5.3-.2.8-.6.9-.9.1-.4 0-1.2 0-1.7V23.8c1-.1 2.3-.1 3.3 0v17.7c-1 .1-2.3.1-3.3 0v-1.8c-.8.9-3.4 3.2-5.2 1.7-1.4-1.3-.9-5.9-.9-8.5zm-8.2-9.7c2.4-.2 4 .7 4.8 2.1.9 1.5.6 4.9.6 7.1 0 2.2.2 5.7-.5 7.2-1.1 2.1-4.6 3.1-6.9 1.6-1.2-.7-2-2.1-2.1-3.6-.2-1.6 0-3.5 0-5.3 0-2.7-.3-5.4.5-6.9.6-1.1 1.8-2 3.6-2.2zm-12.8-5.8c.8 2.8 1.5 5.7 2.2 8.5.1.4.1.8.4 1.1.3-.3.3-.8.4-1.1.7-2.8 1.4-5.8 2.1-8.5h3.7c-1.1 4-2.5 8.2-3.7 12.3-.2.6-.5 1.2-.5 1.8-.1.8 0 1.7 0 2.5v7.5c-1.2 0-2.5.1-3.7 0v-4.7c0-1.6.2-3.2 0-4.7-.1-.6-.4-1.2-.5-1.8-1.5-4.4-2.7-8.8-4.1-12.9 1.1-.1 2.5 0 3.7 0zM77 73.9c0 4.9-3.9 8.8-8.8 8.8H31.7c-4.9 0-8.8-3.9-8.8-8.8V55c0-4.9 3.9-8.8 8.8-8.8h36.5c4.9 0 8.8 3.9 8.8 8.8v18.9z"/><path class="st0" d="M60.5 61.8c-.1-1.5-.5-2.8-1.3-3.4-1.1-.9-2.8-.7-3.8 0-.4.3-.7.7-1.1.9v-7.6H51c-.1 0 0 .1 0 .1V76h3.3v-1.3c.9 1.1 2.9 2 4.6 1.2.9-.5 1.5-1.6 1.6-2.9.1-1.6 0-3.6 0-5.6 0-2.1.1-4.2 0-5.6zm-3.9 11.6c-.8.5-1.7-.2-2.2-.7v-8.2c0-.9-.2-2.1 0-2.7.2-.6 1.3-1.1 2.1-.6 1.1.6.6 4.4.6 6.1v3.4c0 1 .1 2.3-.5 2.7zM69.3 69.4c-.1 1.3.3 3.2-.6 3.8-.3.2-1 .4-1.6.1-1.4-.6-.5-3.9-.8-5.7h6.3c-.1-2.5.2-4.9-.2-6.9-.5-2-2.2-3.3-4.8-3.2-2.4.1-4.3 1.8-4.6 3.9-.3 2.1-.1 5.3-.1 8.1 0 3 .3 5 2 6.2 1.4 1 4 1.1 5.7.1 1.8-1 2.2-3.2 2.1-6.4h-3.4zm-2.6-8c.4-.6 1.5-.6 2.1-.2.8.6.5 2.2.6 3.4h-2.9c-.1-1.2-.3-2.5.2-3.2zM44.5 69.7c0 .6.1 1.3 0 1.7-.1.5-1.4 1.5-2.1 1.4-1-.1-.7-2.1-.7-3.2V57.9h-3.2c-.1 0 0 .1 0 .1v13.3c0 1.6-.1 3.1.5 3.9 1.2 1.8 4 .3 4.9-.6.2-.2.4-.5.7-.6v1.9h3.3v-18h-3.3c-.1 3.8-.1 8.1-.1 11.8z"/></g><path class="st1" d="M69.4 64.6c-.1-1.2.2-2.8-.6-3.4-.6-.4-1.7-.4-2.1.2-.5.7-.3 2-.2 3.2h2.9zM61.5 39.7v1.8c1 .1 2.3.1 3.3 0V23.8c-1-.1-2.3-.1-3.3 0v11.7c0 .5.1 1.3 0 1.7-.1.3-.6.7-.9.9-.8.6-1.7.7-1.9-.5-.2-2.1 0-4.6 0-7v-6.9c-1-.1-2.3-.1-3.3 0v9.2c0 2.6-.5 7.2.9 8.5 1.8 1.5 4.4-.8 5.2-1.7z"/><path class="st1" d="M68.2 46.2H31.7c-4.9 0-8.8 3.9-8.8 8.8v18.9c0 4.9 3.9 8.8 8.8 8.8h36.5c4.9 0 8.8-3.9 8.8-8.8V55c0-4.9-3.9-8.8-8.8-8.8zm-29.8 9.3c-1.3 0-2.5 0-3.8-.2-.1 6.8 0 13.8 0 20.6h-3.7V55.4c-1.1-.1-2.5 0-3.8 0v-3.6s-.1-.1 0-.1h11.3v3.8zm9.5 20.4h-3.3V74c-.3.1-.5.4-.7.6-.9.9-3.7 2.4-4.9.6-.6-.8-.5-2.3-.5-3.9V58s-.1-.1 0-.1h3.2v11.7c0 1.1-.3 3.1.7 3.2.7.1 2-.9 2.1-1.4.1-.4 0-1.1 0-1.7 0-3.7 0-8 .1-11.8h3.3v18zM60.5 73c-.1 1.3-.7 2.4-1.6 2.9-1.7.8-3.7-.1-4.6-1.2V76H51V51.8s-.1-.1 0-.1h3.3v7.6c.4-.2.7-.6 1.1-.9 1-.7 2.7-.9 3.8 0 .8.6 1.2 1.9 1.3 3.4.1 1.4 0 3.5 0 5.6 0 2 .1 4 0 5.6zm10.1 2.8c-1.7 1-4.3.9-5.7-.1-1.7-1.2-2-3.2-2-6.2 0-2.8-.2-6 .1-8.1.3-2.1 2.2-3.8 4.6-3.9 2.6-.1 4.3 1.2 4.8 3.2.4 2 .1 4.4.2 6.9h-6.3c.3 1.8-.6 5.1.8 5.7.6.3 1.3.1 1.6-.1.9-.6.5-2.5.6-3.8h3.4c.1 3.2-.3 5.4-2.1 6.4zM43.1 32.3c0 1.8-.2 3.7 0 5.3.1 1.5.9 2.9 2.1 3.6 2.3 1.5 5.8.5 6.9-1.6.7-1.5.5-5 .5-7.2s.3-5.6-.6-7.1c-.8-1.4-2.4-2.3-4.8-2.1-1.8.2-3 1.1-3.6 2.2-.8 1.5-.5 4.2-.5 6.9zm4.4-5.9c.5-.1 1.3 0 1.6.6.3.5.1 1.7.1 2.7v5.6c0 .8.2 2-.1 2.7-.3.8-1.9 1.2-2.5.3-.3-.5-.2-1.9-.2-2.7v-5.7c0-1.5-.3-3.3 1.1-3.5zM35.3 32.1c.2 1.5 0 3.1 0 4.7v4.7c1.2.1 2.5 0 3.7 0V34c0-.8-.1-1.7 0-2.5 0-.6.3-1.2.5-1.8 1.2-4.1 2.6-8.3 3.7-12.3h-3.7c-.7 2.7-1.4 5.7-2.1 8.5-.1.3-.1.8-.4 1.1-.3-.3-.3-.7-.4-1.1-.7-2.8-1.4-5.7-2.2-8.5-1.2 0-2.6-.1-3.7 0 1.4 4.1 2.6 8.5 4.1 12.9.1.6.4 1.2.5 1.8z"/><path class="st1" d="M56.5 61.2c-.8-.5-1.9 0-2.1.6-.2.6 0 1.8 0 2.7v8.2c.5.5 1.4 1.2 2.2.7.6-.4.5-1.7.5-2.7v-3.4c0-1.7.5-5.5-.6-6.1z"/></svg>