<?xml version="1.0" encoding="utf-8"?>
<!-- Generator: Adobe Illustrator 19.2.1, SVG Export Plug-In . SVG Version: 6.00 Build 0)  -->
<svg version="1.1" id="burger" xmlns:sketch="http://www.bohemiancoding.com/sketch/ns"
	 xmlns="http://www.w3.org/2000/svg" xmlns:xlink="http://www.w3.org/1999/xlink" x="0px" y="0px" viewBox="0 0 141 100"
	 style="enable-background:new 0 0 141 100;" xml:space="preserve">
<style type="text/css">
	.st0{fill:#E0DECF;}
</style>
<path sketch:type="MSShapeGroup" class="st0" d="M10.1,20h120.9c5.6,0,10.1-4.5,10.1-10s-4.5-10-10.1-10H10.1C4.5,0,0,4.5,0,10
	S4.5,20,10.1,20L10.1,20z M130.9,40H10.1C4.5,40,0,44.5,0,50s4.5,10,10.1,10h120.9c5.6,0,10.1-4.5,10.1-10S136.5,40,130.9,40
	L130.9,40z M130.9,80H10.1C4.5,80,0,84.5,0,90s4.5,10,10.1,10h120.9c5.6,0,10.1-4.5,10.1-10S136.5,80,130.9,80L130.9,80z"/>
</svg>
