<?xml version="1.0" encoding="utf-8"?>
<!-- Generator: Adobe Illustrator 19.2.1, SVG Export Plug-In . SVG Version: 6.00 Build 0)  -->
<svg version="1.1" id="email" xmlns="http://www.w3.org/2000/svg" xmlns:xlink="http://www.w3.org/1999/xlink" x="0px" y="0px"
	 viewBox="0 0 100 100" style="enable-background:new 0 0 100 100;" xml:space="preserve">
<style type="text/css">
	.st0{fill:none;}
	.st1{fill:#E0DECF;}
</style>
<g id="hollow">
	<polygon class="st0" points="23.8,39.7 23.8,67.8 76.2,67.8 76.2,39.6 49.9,61.4 	"/>
	<polygon class="st0" points="74.9,32.2 25.1,32.2 49.9,52.8 	"/>
	<path class="st0" d="M50,0C22.4,0,0,22.4,0,50s22.4,50,50,50s50-22.4,50-50S77.6,0,50,0z M82.6,69.2c0,2.8-2.2,5-5,5H22.4
		c-2.8,0-5-2.2-5-5V30.8c0-2.8,2.2-5,5-5h55.2c2.8,0,5,2.2,5,5V69.2z"/>
</g>
<path class="st1" d="M77.6,25.8H22.4c-2.8,0-5,2.2-5,5v38.4c0,2.8,2.2,5,5,5h55.2c2.8,0,5-2.2,5-5V30.8C82.6,28,80.4,25.8,77.6,25.8
	z M74.9,32.2l-25,20.6L25.1,32.2H74.9z M76.2,67.8H23.8V39.7l26.1,21.7l26.3-21.8V67.8z"/>
</svg>
