<?xml version="1.0" encoding="utf-8"?>
<!-- Generator: Adobe Illustrator 19.2.1, SVG Export Plug-In . SVG Version: 6.00 Build 0)  -->
<svg version="1.1" id="instagram" xmlns="http://www.w3.org/2000/svg" xmlns:xlink="http://www.w3.org/1999/xlink" x="0px" y="0px"
	 viewBox="0 0 100 100" style="enable-background:new 0 0 100 100;" xml:space="preserve">
<style type="text/css">
	.st0{fill:none;}
	.st1{fill:#E0DECF;}
</style>
<g id="hollow">
	<path class="st0" d="M50.1,58.4c4.1,0,7.8-3.4,8-7.6c0.3-5.6-4.5-9.1-9.3-8.5c-3.5,0.5-6.1,2.9-6.8,6.4
		C40.9,54.2,45.6,58.4,50.1,58.4z"/>
	<path class="st0" d="M71.3,26.6H65c-0.9,0-1.6,0.7-1.6,1.6v6.3c0,0.9,0.7,1.6,1.6,1.6h6.3c0.9,0,1.6-0.7,1.6-1.6v-6.3
		C73,27.3,72.2,26.6,71.3,26.6z"/>
	<path class="st0" d="M50,0C22.4,0,0,22.4,0,50s22.4,50,50,50s50-22.4,50-50S77.6,0,50,0z M78.1,65.2c0,3.8-0.7,6.7-2.7,9
		c-1.8,2-4.2,3.7-7.6,4c-5.6,0.4-11.6,0-17.6,0c-5.7,0-11.8,0.4-17.6,0c-5.7-0.4-10.1-4.6-10.5-10.5c-0.6-7.8,0.4-17,0-25.4
		c0-0.2,0.1-0.4,0.3-0.4c5.3,0,10.5,0,15.8,0c0.5,0.3-0.4,1-0.7,1.5c-1.1,2-1.9,5-1.6,8.3c0.4,6.6,6,12.3,13.1,12.8
		c5.2,0.4,9.4-2.1,12-5.3c2.4-2.9,4.4-8,2.6-13.4c-0.2-0.7-0.6-1.4-1-2c-0.3-0.6-0.8-1.2-0.8-1.9c5.4,0,10.7,0,16.1,0
		C78.2,50.1,78.1,57.6,78.1,65.2z M39,50.5c-0.1-3.6,1.6-6.5,3.3-8.2s3.8-2.8,7.1-3c6.1-0.4,11.1,3.9,11.7,9.5
		c0.6,6.2-3.7,11.7-9.3,12.4c-1,0.1-2.4,0.1-3.4,0C43.5,60.7,39.1,56.2,39,50.5z M78.1,40.3c-4.5,0-8.6,0-13.2,0
		c-1.4,0-3.1,0.3-4.4,0c-0.8-0.2-1.2-1-1.9-1.5c-2.2-1.6-5.6-3-9.8-2.7c-3.1,0.2-5.2,1.3-7.2,2.9c-0.5,0.4-1.3,1.2-1.9,1.4
		c-1.2,0.3-3,0-4.5,0c-4.3,0-8.5,0-13.1,0c0.2-3.3-0.4-6.5,0.1-9.3c0.6-3.3,2.6-5.6,4.6-7c0,3.9,0,11.7,0,11.7H29
		c0,0-0.2-9,0.1-13.1c0.3-0.3,1-0.2,1.4-0.5c0.3,4.2,0.3,13.6,0.3,13.6H33c0,0,0-9,0-13.5c0-0.2,0-0.4,0.1-0.4c0.5,0,0.9,0,1.4,0
		c0,4.6,0,13.9,0,13.9h2.3c0,0,0-9.3,0-13.9c9.4,0.5,21.5-0.6,30.7,0c3.6,0.2,6.6,2,8.3,4.2C78.3,29.3,78.2,34,78.1,40.3z"/>
</g>
<path class="st1" d="M67.5,21.9c-9.2-0.6-21.3,0.5-30.7,0c0,4.6,0,13.9,0,13.9h-2.3c0,0,0-9.3,0-13.9c-0.5,0-0.9,0-1.4,0
	c-0.1,0-0.1,0.2-0.1,0.4c0,4.5,0,13.5,0,13.5h-2.2c0,0,0-9.4-0.3-13.6c-0.4,0.3-1.1,0.2-1.4,0.5C28.8,26.8,29,35.8,29,35.8h-2.2
	c0,0,0-7.8,0-11.7c-2,1.4-4,3.7-4.6,7c-0.5,2.8,0.1,6-0.1,9.3c4.6,0,8.8,0,13.1,0c1.5,0,3.3,0.3,4.5,0c0.6-0.2,1.4-1,1.9-1.4
	c2-1.6,4.1-2.7,7.2-2.9c4.2-0.3,7.6,1.1,9.8,2.7c0.7,0.5,1.1,1.3,1.9,1.5c1.3,0.3,3,0,4.4,0c4.6,0,8.7,0,13.2,0
	c0.1-6.3,0.2-11-2.3-14.2C74.1,23.9,71.1,22.1,67.5,21.9z M72.9,34.5c0,0.9-0.7,1.6-1.6,1.6H65c-0.9,0-1.6-0.7-1.6-1.6v-6.3
	c0-0.9,0.7-1.6,1.6-1.6h6.3c0.9,0,1.7,0.7,1.6,1.6V34.5z"/>
<path class="st1" d="M61.8,41.9c0,0.7,0.5,1.3,0.8,1.9c0.4,0.6,0.8,1.3,1,2c1.8,5.4-0.2,10.5-2.6,13.4c-2.6,3.2-6.8,5.7-12,5.3
	c-7.1-0.5-12.7-6.2-13.1-12.8c-0.3-3.3,0.5-6.3,1.6-8.3c0.3-0.5,1.2-1.2,0.7-1.5c-5.3,0-10.5,0-15.8,0c-0.2,0-0.3,0.2-0.3,0.4
	c0.4,8.4-0.6,17.6,0,25.4c0.4,5.9,4.8,10.1,10.5,10.5c5.8,0.4,11.9,0,17.6,0c6,0,12,0.4,17.6,0c3.4-0.3,5.8-2,7.6-4
	c2-2.3,2.7-5.2,2.7-9c0-7.6,0.1-15.1-0.2-23.3C72.5,41.9,67.2,41.9,61.8,41.9z"/>
<path class="st1" d="M48.4,61.2c1,0.1,2.4,0.1,3.4,0c5.6-0.7,9.9-6.2,9.3-12.4c-0.6-5.6-5.6-9.9-11.7-9.5c-3.3,0.2-5.4,1.3-7.1,3
	s-3.4,4.6-3.3,8.2C39.1,56.2,43.5,60.7,48.4,61.2z M42,48.7c0.7-3.5,3.3-5.9,6.8-6.4c4.8-0.6,9.6,2.9,9.3,8.5
	c-0.2,4.2-3.9,7.6-8,7.6C45.6,58.4,40.9,54.2,42,48.7z"/>
</svg>
