<?xml version="1.0" encoding="utf-8"?>
<!-- Generator: Adobe Illustrator 19.2.1, SVG Export Plug-In . SVG Version: 6.00 Build 0)  -->
<svg version="1.1" id="phone" xmlns="http://www.w3.org/2000/svg" xmlns:xlink="http://www.w3.org/1999/xlink" x="0px" y="0px"
	 viewBox="0 0 100 100" style="enable-background:new 0 0 100 100;" xml:space="preserve">
<style type="text/css">
	.st0{fill:none;}
	.st1{fill:#E0DECF;}
</style>
<g id="hollow">
	<path class="st0" d="M50,0C22.4,0,0,22.4,0,50s22.4,50,50,50s50-22.4,50-50S77.6,0,50,0z M72.8,78.1c0,0-10.6,7.6-17.4,5.3
		c-6.7-2.4-13.4-9-22.5-27.3c-0.8-1.7-1.3-2.4-3.6-8.4c-4.4-10.8-3.6-15.3-2-20.5c2.1-6.9,14.6-10.9,14.6-10.9
		c1.5-0.5,3.2,0.4,3.7,1.9l4.2,13.2c0.5,1.5-0.3,3.4-1.8,4.1c0,0-0.6,0.3-5.6,2.9c-5,2.6-1.8,8.7-1.8,8.7l3.6,7.8
		c0.1,0.3,0.2,0.5,0.3,0.9l2.8,5.1c0,0,3,6.2,8,3.7s5.6-2.8,5.6-2.8c1.4-0.8,3.4-0.3,4.4,1L73.5,74C74.4,75.3,74.1,77.1,72.8,78.1z"
		/>
</g>
<path class="st1" d="M65.3,62.8c-1-1.3-3-1.8-4.4-1c0,0-0.6,0.3-5.6,2.8s-8-3.7-8-3.7l-2.8-5.1c-0.1-0.4-0.2-0.6-0.3-0.9l-3.6-7.8
	c0,0-3.2-6.1,1.8-8.7c5-2.6,5.6-2.9,5.6-2.9c1.5-0.7,2.3-2.6,1.8-4.1l-4.2-13.2c-0.5-1.5-2.2-2.4-3.7-1.9c0,0-12.5,4-14.6,10.9
	c-1.6,5.2-2.4,9.7,2,20.5c2.3,6,2.8,6.7,3.6,8.4C42,74.4,48.7,81,55.4,83.4c6.8,2.3,17.4-5.3,17.4-5.3c1.3-1,1.6-2.8,0.7-4.1
	L65.3,62.8z"/>
</svg>
