<?xml version="1.0" encoding="utf-8"?>
<!-- Generator: Adobe Illustrator 19.2.1, SVG Export Plug-In . SVG Version: 6.00 Build 0)  -->
<svg version="1.1" id="youtube" xmlns="http://www.w3.org/2000/svg" xmlns:xlink="http://www.w3.org/1999/xlink" x="0px" y="0px"
	 viewBox="0 0 100 100" style="enable-background:new 0 0 100 100;" xml:space="preserve">
<style type="text/css">
	.st0{fill:none;}
	.st1{fill:#E0DECF;}
</style>
<g id="hollow">
	<path class="st0" d="M27.1,51.8c0,1.2,0,2.4,0,3.6c1.3,0,2.7-0.1,3.8,0c0,6.8,0,13.7,0,20.5c1.2,0,2.5,0,3.7,0
		c0-6.8-0.1-13.8,0-20.6c1.3,0.2,2.5,0.2,3.8,0.2c0-1.2,0-2.5,0-3.8C34.6,51.7,30.8,51.7,27.1,51.8C27,51.7,27.1,51.8,27.1,51.8z"/>
	<path class="st0" d="M46.4,35.6c0,0.8-0.1,2.2,0.2,2.7c0.6,0.9,2.2,0.5,2.5-0.3c0.3-0.7,0.1-1.9,0.1-2.7c0-2.2,0-3.5,0-5.6
		c0-1,0.2-2.2-0.1-2.7c-0.3-0.6-1.1-0.7-1.6-0.6c-1.4,0.2-1.1,2-1.1,3.5S46.4,34,46.4,35.6z"/>
	<path class="st0" d="M50,0C22.4,0,0,22.4,0,50s22.4,50,50,50s50-22.4,50-50S77.6,0,50,0z M55.4,32.9c0-3.3,0-6.4,0-9.2
		c1-0.1,2.3-0.1,3.3,0c0,2.2,0,4.5,0,6.9c0,2.4-0.2,4.9,0,7c0.2,1.2,1.1,1.1,1.9,0.5c0.3-0.2,0.8-0.6,0.9-0.9c0.1-0.4,0-1.2,0-1.7
		c0-3.7,0-8.1,0-11.7c1-0.1,2.3-0.1,3.3,0c0,5.9,0,11.8,0,17.7c-1,0.1-2.3,0.1-3.3,0c0-0.6,0-1.2,0-1.8c-0.8,0.9-3.4,3.2-5.2,1.7
		C54.9,40.1,55.4,35.5,55.4,32.9z M47.2,23.2c2.4-0.2,4,0.7,4.8,2.1c0.9,1.5,0.6,4.9,0.6,7.1c0,2.2,0.2,5.7-0.5,7.2
		c-1.1,2.1-4.6,3.1-6.9,1.6c-1.2-0.7-2-2.1-2.1-3.6c-0.2-1.6,0-3.5,0-5.3c0-2.7-0.3-5.4,0.5-6.9C44.2,24.3,45.4,23.4,47.2,23.2z
		 M34.4,17.4c0.8,2.8,1.5,5.7,2.2,8.5c0.1,0.4,0.1,0.8,0.4,1.1c0.3-0.3,0.3-0.8,0.4-1.1c0.7-2.8,1.4-5.8,2.1-8.5c1.2,0,2.4,0,3.7,0
		c-1.1,4-2.5,8.2-3.7,12.3c-0.2,0.6-0.5,1.2-0.5,1.8c-0.1,0.8,0,1.7,0,2.5c0,2.6,0,5,0,7.5c-1.2,0-2.5,0.1-3.7,0c0-1.6,0-3.2,0-4.7
		c0-1.6,0.2-3.2,0-4.7c-0.1-0.6-0.4-1.2-0.5-1.8c-1.5-4.4-2.7-8.8-4.1-12.9C31.8,17.3,33.2,17.4,34.4,17.4z M77,73.9
		c0,4.9-3.9,8.8-8.8,8.8H31.7c-4.9,0-8.8-3.9-8.8-8.8V55c0-4.9,3.9-8.8,8.8-8.8h36.5c4.9,0,8.8,3.9,8.8,8.8V73.9z"/>
	<path class="st0" d="M60.5,61.8c-0.1-1.5-0.5-2.8-1.3-3.4c-1.1-0.9-2.8-0.7-3.8,0c-0.4,0.3-0.7,0.7-1.1,0.9c0-2.5,0-5.1,0-7.6
		c-1.1,0-2.2,0-3.3,0c-0.1,0,0,0.1,0,0.1c0,8.1,0,16.1,0,24.2c1.1,0,2.2,0,3.3,0c0-0.4,0-0.9,0-1.3c0.9,1.1,2.9,2,4.6,1.2
		c0.9-0.5,1.5-1.6,1.6-2.9c0.1-1.6,0-3.6,0-5.6C60.5,65.3,60.6,63.2,60.5,61.8z M56.6,73.4c-0.8,0.5-1.7-0.2-2.2-0.7
		c0-2.4,0-5.5,0-8.2c0-0.9-0.2-2.1,0-2.7c0.2-0.6,1.3-1.1,2.1-0.6c1.1,0.6,0.6,4.4,0.6,6.1c0,1.1,0,2.2,0,3.4
		C57.1,71.7,57.2,73,56.6,73.4z"/>
	<path class="st0" d="M69.3,69.4c-0.1,1.3,0.3,3.2-0.6,3.8c-0.3,0.2-1,0.4-1.6,0.1c-1.4-0.6-0.5-3.9-0.8-5.7c2.1,0,4.2,0,6.3,0
		c-0.1-2.5,0.2-4.9-0.2-6.9c-0.5-2-2.2-3.3-4.8-3.2c-2.4,0.1-4.3,1.8-4.6,3.9c-0.3,2.1-0.1,5.3-0.1,8.1c0,3,0.3,5,2,6.2
		c1.4,1,4,1.1,5.7,0.1c1.8-1,2.2-3.2,2.1-6.4C71.6,69.4,70.4,69.4,69.3,69.4z M66.7,61.4c0.4-0.6,1.5-0.6,2.1-0.2
		c0.8,0.6,0.5,2.2,0.6,3.4c-1,0-2,0-2.9,0C66.4,63.4,66.2,62.1,66.7,61.4z"/>
	<path class="st0" d="M44.5,69.7c0,0.6,0.1,1.3,0,1.7c-0.1,0.5-1.4,1.5-2.1,1.4c-1-0.1-0.7-2.1-0.7-3.2c0-4,0-7.8,0-11.7
		c-1.1,0-2.2,0-3.2,0c-0.1,0,0,0.1,0,0.1c0,3.9,0,9,0,13.3c0,1.6-0.1,3.1,0.5,3.9c1.2,1.8,4,0.3,4.9-0.6c0.2-0.2,0.4-0.5,0.7-0.6
		c0,0.6,0,1.2,0,1.9c1.1,0,2.2,0,3.3,0c0-6,0-12,0-18c-1.1,0-2.2,0-3.3,0C44.5,61.7,44.5,66,44.5,69.7z"/>
</g>
<path class="st1" d="M69.4,64.6c-0.1-1.2,0.2-2.8-0.6-3.4c-0.6-0.4-1.7-0.4-2.1,0.2c-0.5,0.7-0.3,2-0.2,3.2
	C67.4,64.6,68.4,64.6,69.4,64.6z"/>
<path class="st1" d="M61.5,39.7c0,0.6,0,1.2,0,1.8c1,0.1,2.3,0.1,3.3,0c0-5.9,0-11.8,0-17.7c-1-0.1-2.3-0.1-3.3,0c0,3.6,0,8,0,11.7
	c0,0.5,0.1,1.3,0,1.7c-0.1,0.3-0.6,0.7-0.9,0.9c-0.8,0.6-1.7,0.7-1.9-0.5c-0.2-2.1,0-4.6,0-7c0-2.4,0-4.7,0-6.9
	c-1-0.1-2.3-0.1-3.3,0c0,2.8,0,5.9,0,9.2c0,2.6-0.5,7.2,0.9,8.5C58.1,42.9,60.7,40.6,61.5,39.7z"/>
<path class="st1" d="M68.2,46.2H31.7c-4.9,0-8.8,3.9-8.8,8.8v18.9c0,4.9,3.9,8.8,8.8,8.8h36.5c4.9,0,8.8-3.9,8.8-8.8V55
	C77,50.1,73.1,46.2,68.2,46.2z M38.4,55.5c-1.3,0-2.5,0-3.8-0.2c-0.1,6.8,0,13.8,0,20.6c-1.2,0-2.5,0-3.7,0c0-6.8,0-13.7,0-20.5
	c-1.1-0.1-2.5,0-3.8,0c0-1.2,0-2.4,0-3.6c0,0-0.1-0.1,0-0.1c3.7,0,7.5,0,11.3,0C38.4,53,38.4,54.3,38.4,55.5z M47.9,75.9
	c-1.1,0-2.2,0-3.3,0c0-0.7,0-1.3,0-1.9c-0.3,0.1-0.5,0.4-0.7,0.6C43,75.5,40.2,77,39,75.2c-0.6-0.8-0.5-2.3-0.5-3.9
	c0-4.3,0-9.4,0-13.3c0,0-0.1-0.1,0-0.1c1,0,2.1,0,3.2,0c0,3.9,0,7.7,0,11.7c0,1.1-0.3,3.1,0.7,3.2c0.7,0.1,2-0.9,2.1-1.4
	c0.1-0.4,0-1.1,0-1.7c0-3.7,0-8,0.1-11.8c1.1,0,2.2,0,3.3,0C47.9,63.9,47.9,69.9,47.9,75.9z M60.5,73c-0.1,1.3-0.7,2.4-1.6,2.9
	c-1.7,0.8-3.7-0.1-4.6-1.2c0,0.4,0,0.9,0,1.3c-1.1,0-2.2,0-3.3,0c0-8.1,0-16.1,0-24.2c0,0-0.1-0.1,0-0.1c1.1,0,2.2,0,3.3,0
	c0,2.5,0,5.1,0,7.6c0.4-0.2,0.7-0.6,1.1-0.9c1-0.7,2.7-0.9,3.8,0c0.8,0.6,1.2,1.9,1.3,3.4c0.1,1.4,0,3.5,0,5.6
	C60.5,69.4,60.6,71.4,60.5,73z M70.6,75.8c-1.7,1-4.3,0.9-5.7-0.1c-1.7-1.2-2-3.2-2-6.2c0-2.8-0.2-6,0.1-8.1
	c0.3-2.1,2.2-3.8,4.6-3.9c2.6-0.1,4.3,1.2,4.8,3.2c0.4,2,0.1,4.4,0.2,6.9c-2.1,0-4.2,0-6.3,0c0.3,1.8-0.6,5.1,0.8,5.7
	c0.6,0.3,1.3,0.1,1.6-0.1c0.9-0.6,0.5-2.5,0.6-3.8c1.1,0,2.3,0,3.4,0C72.8,72.6,72.4,74.8,70.6,75.8z"/>
<path class="st1" d="M43.1,32.3c0,1.8-0.2,3.7,0,5.3c0.1,1.5,0.9,2.9,2.1,3.6c2.3,1.5,5.8,0.5,6.9-1.6c0.7-1.5,0.5-5,0.5-7.2
	c0-2.2,0.3-5.6-0.6-7.1c-0.8-1.4-2.4-2.3-4.8-2.1c-1.8,0.2-3,1.1-3.6,2.2C42.8,26.9,43.1,29.6,43.1,32.3z M47.5,26.4
	c0.5-0.1,1.3,0,1.6,0.6c0.3,0.5,0.1,1.7,0.1,2.7c0,2.1,0,3.4,0,5.6c0,0.8,0.2,2-0.1,2.7c-0.3,0.8-1.9,1.2-2.5,0.3
	c-0.3-0.5-0.2-1.9-0.2-2.7c0-1.6,0-4.2,0-5.7S46.1,26.6,47.5,26.4z"/>
<path class="st1" d="M35.3,32.1c0.2,1.5,0,3.1,0,4.7c0,1.5,0,3.1,0,4.7c1.2,0.1,2.5,0,3.7,0c0-2.5,0-4.9,0-7.5c0-0.8-0.1-1.7,0-2.5
	c0-0.6,0.3-1.2,0.5-1.8c1.2-4.1,2.6-8.3,3.7-12.3c-1.3,0-2.5,0-3.7,0c-0.7,2.7-1.4,5.7-2.1,8.5c-0.1,0.3-0.1,0.8-0.4,1.1
	c-0.3-0.3-0.3-0.7-0.4-1.1c-0.7-2.8-1.4-5.7-2.2-8.5c-1.2,0-2.6-0.1-3.7,0c1.4,4.1,2.6,8.5,4.1,12.9C34.9,30.9,35.2,31.5,35.3,32.1z
	"/>
<path class="st1" d="M56.5,61.2c-0.8-0.5-1.9,0-2.1,0.6c-0.2,0.6,0,1.8,0,2.7c0,2.7,0,5.8,0,8.2c0.5,0.5,1.4,1.2,2.2,0.7
	c0.6-0.4,0.5-1.7,0.5-2.7c0-1.2,0-2.3,0-3.4C57.1,65.6,57.6,61.8,56.5,61.2z"/>
</svg>
